<svg id="Icons" height="39px" viewBox="0 0 74 74" width="50px" xmlns="http://www.w3.org/2000/svg"><path d="m56.87 65.59a1 1 0 0 1 -.512-1.864c.788-.575 1.521-1.154 2.178-1.723a1 1 0 0 1 1.309 1.513c-.722.624-1.526 1.258-2.388 1.883a1 1 0 0 1 -.587.191z"/><path d="m37 72a34.943 34.943 0 1 1 32.921-23.07 1 1 0 0 1 -1.881-.68 32.985 32.985 0 1 0 -17.88 19.023 1 1 0 1 1 .8 1.833 34.7 34.7 0 0 1 -13.96 2.894z"/><path d="m64 58.67a.986.986 0 0 1 -.6-.2 1 1 0 0 1 -.193-1.4c.6-.786 1.157-1.586 1.666-2.376a1 1 0 0 1 1.682 1.082c-.536.833-1.126 1.676-1.754 2.5a1 1 0 0 1 -.801.394z"/><path d="m42.75 61h-11.5a1.96 1.96 0 0 1 -1.958-1.958v-14.334h-14.334a1.96 1.96 0 0 1 -1.958-1.958v-11.5a1.96 1.96 0 0 1 1.958-1.958h14.334v-14.334a1.96 1.96 0 0 1 1.958-1.958h11.5a1.96 1.96 0 0 1 1.958 1.958v14.334h14.334a1.96 1.96 0 0 1 1.958 1.958v11.5a1.96 1.96 0 0 1 -1.958 1.958h-14.334v14.334a1.96 1.96 0 0 1 -1.958 1.958zm-12.458-18.292a1 1 0 0 1 1 1v15.334l11.458-.042-.042-15.292a1 1 0 0 1 1-1h15.334l-.042-11.416h-15.292a1 1 0 0 1 -1-1v-15.334l-11.458.042.042 15.292a1 1 0 0 1 -1 1h-15.334l.042 11.458z"/><path d="m39.808 22.367a.993.993 0 0 1 -.707-.293l-2.1-2.1-2.1 2.1a1 1 0 0 1 -1.414-1.414l2.808-2.808a1.029 1.029 0 0 1 1.414 0l2.808 2.808a1 1 0 0 1 -.707 1.707z"/><path d="m37 56.441a1 1 0 0 1 -.707-.293l-2.808-2.808a1 1 0 0 1 1.415-1.414l2.1 2.1 2.1-2.1a1 1 0 0 1 1.414 1.414l-2.808 2.808a1 1 0 0 1 -.706.293z"/><path d="m52.633 40.808a1 1 0 0 1 -.707-1.707l2.1-2.1-2.1-2.1a1 1 0 0 1 1.414-1.414l2.807 2.808a1 1 0 0 1 0 1.414l-2.807 2.806a1 1 0 0 1 -.707.293z"/><path d="m21.367 40.808a1 1 0 0 1 -.707-.293l-2.807-2.808a1 1 0 0 1 0-1.414l2.807-2.808a1 1 0 0 1 1.414 1.415l-2.1 2.1 2.1 2.1a1 1 0 0 1 -.707 1.707z"/></svg>