<svg id="Capa_1" enable-background="new 0 0 512 512" height="50px" viewBox="0 0 512 512" width="50px" xmlns="http://www.w3.org/2000/svg"><g><g><path d="m512 35.288c0-19.342-15.736-35.079-35.079-35.079h-126.873c-5.523 0-10 4.477-10 10s4.477 10 10 10h126.874c8.314 0 15.079 6.764 15.079 15.079v192.315c-6.349-2.215-13.546-2.217-19.896-.013 0-3.819.146-7.642-.627-11.405-1.461-7.121-5.395-13.347-10.856-17.752-2.512-39.161-19.297-75.601-47.623-103.095-29.64-28.769-68.715-44.612-110.027-44.612-72.807 0-134.259 49.5-152.493 116.609h-11.862l-34.584-70.599c5.809-5.505 9.443-13.284 9.443-21.9 0-16.646-13.542-30.188-30.187-30.188-16.646 0-30.188 13.542-30.188 30.188 0 16.645 13.542 30.187 30.188 30.187.835 0 1.66-.043 2.479-.11l37.631 76.821c1.679 3.428 5.164 5.601 8.98 5.601h14.041c-.951 6.996-1.453 14.132-1.453 21.385 0 77.875 57.118 144.241 133.553 156.111l22.805 30.018.344.453h-114.837v-40.098c0-15.348-11.676-28.785-26.915-30.83-2.934-.396-5.927-.375-8.854.073-3.008-16.376-17.377-28.826-34.609-28.826-3.738 0-7.339.591-10.721 1.675-2.318-14.415-16.675-28.195-32.079-26.168-14.134 1.127-26.394 10.665-29.337 24.862l-19.562 95.183c-2.926-2.771-4.754-6.688-4.754-10.95v-344.935c0-8.314 6.764-15.079 15.079-15.079h226.507c5.523 0 10-4.477 10-10s-4.477-10-10-10h-226.508c-19.343.001-35.079 15.737-35.079 35.079v344.936c0 15.368 9.687 28.422 23.574 33.164.068.361.125.722.202 1.083l19.24 89.423c.991 4.607 5.064 7.896 9.776 7.896h88.859c5.523 0 10-4.477 10-10v-18.917l21.519-34.129c.06-.094.117-.189.173-.286 6.001-10.264 10.073-21.512 12.067-33.156h132.522c2.432 2.377 5.013 4.602 7.741 6.648 14.58 10.935 23.284 28.344 23.284 46.569v33.271c0 5.523 4.477 10 10 10h116.158c5.523 0 10-4.477 10-10v-24.063c0-6.848 1.174-13.589 3.489-20.035l18.698-52.064c3.097-8.62 4.667-17.635 4.667-26.795zm-438.898 39.549c0-5.617 4.57-10.188 10.188-10.188s10.187 4.57 10.187 10.188-4.57 10.187-10.187 10.187-10.188-4.57-10.188-10.187zm42.698 312.636c-1.67 3.811-5.291 6.666-9.408 7.337-8.193 1.335-17.132-6.981-15.405-15.418l4.207-20.548c5.911 4.495 13.278 7.171 21.261 7.171 1.62 0 3.212-.12 4.775-.333 0 .001-4.283 19.173-5.43 21.791zm15.852-56.655c0 8.38-6.817 15.197-15.197 15.197s-15.197-6.817-15.197-15.197c0-8.379 6.817-15.197 15.197-15.197s15.197 6.818 15.197 15.197zm1.541 143.833c-1.007 1.597-1.541 3.446-1.541 5.333v11.806h-70.782l-17.537-81.509c-.709-3.322-.706-6.792-.007-10.116l20.522-99.837c1.428-4.945 5.955-9.931 11.607-9.256 6.692.799 11.816 6.775 10.445 13.459l-7.046 34.414-7.455 36.388c-4.182 19.916 11.796 39.93 32.411 39.93 15.192 0 28.695-10.653 32.222-25.434l8.762-36.712c1.23-5.155 5.753-8.95 10.756-9.023 6.126-.097 11.278 4.985 11.278 11.111v43.463c0 13.83-3.71 27.601-10.667 39.555zm169.774-235.418c-16.822 0-30.508-13.686-30.508-30.509 0-16.822 13.686-30.508 30.508-30.508 16.823 0 30.509 13.686 30.509 30.508 0 16.823-13.686 30.509-30.509 30.509zm-137.999-30.513c0-7.272.57-14.413 1.659-21.385h37.109c5.523 0 10-4.477 10-10s-4.477-10-10-10h-32.425c17.623-55.933 69.979-96.609 131.661-96.609 36.082 0 70.21 13.837 96.097 38.964 22.785 22.115 37.027 50.854 40.852 81.969-4.232.195-8.448 1.284-12.241 3.174-4.498-9.353-13.741-16.002-24.551-16.796-13.808-1.016-27.303 7.463-31.487 20.837-3.419-1.375-7.153-2.134-11.058-2.134 0 0 0 0-.001 0h-.001c-2.873 0-5.649.418-8.28 1.182-4.961-22.677-25.191-39.708-49.334-39.708-27.851 0-50.508 22.658-50.508 50.508s22.658 50.509 50.508 50.509c10.3 0 19.885-3.106 27.881-8.42v68.738l-20.217-16.446c-11.189-9.097-26.691-9.006-38.532-1.305-12.344 8.047-16.65 25.17-11.016 38.452-56.2-17.875-96.116-70.681-96.116-131.53zm323.514 190.148-18.699 52.064c-3.096 8.62-4.666 17.635-4.666 26.794v14.063h-96.158v-23.271c0-24.487-11.695-47.877-31.284-62.569-4.298-3.223-8.175-7.076-11.426-11.355l-45.231-59.541c-3.878-5.101-2.887-12.508 2.039-16.482 4.408-3.556 10.853-2.776 15.217.263l36.265 29.501c6.406 5.21 16.311.474 16.311-7.757v-114.105c0-5.364 4.364-9.728 9.728-9.728 5.299 0 9.696 4.536 9.729 9.788v82.005c0 5.523 4.477 10 10 10s10-4.477 10-10v-100.852c0-5.666 5.035-9.727 10.494-9.728 5.306-.024 9.799 4.42 9.799 9.733l.002 100.847c0 5.523 4.477 10 10 10s10-4.477 10-10v-86.164c0-5.851 4.901-10.747 10.75-10.747 5.775 0 10.75 4.97 10.75 10.747v86.164c0 5.523 4.477 10 10 10 5.522 0 10-4.478 10-10v-52.829c0-5.588 4.672-9.793 10.134-9.752 5.367 0 9.733 4.366 9.733 9.733 0 .008.001.016.001.024v123.118c.001 6.85-1.173 13.59-3.488 20.036z"/><path d="m350.436 136.84c4.552 3.005 10.854 1.709 13.855-2.835 3.043-4.609 1.773-10.812-2.835-13.855-34.675-22.895-79.636-23.121-114.543-.577-4.639 2.996-5.971 9.186-2.975 13.826 2.996 4.639 9.185 5.97 13.826 2.975 28.241-18.24 64.617-18.058 92.672.466z"/><path d="m312.2 204.903c-2.067-5.042-8.036-7.491-13.06-5.41-5.033 2.085-7.495 8.026-5.41 13.06s8.031 7.487 13.06 5.41c5.028-2.076 7.503-8.036 5.41-13.06z"/><path d="m296.93 14.023c2.093 5.024 8.022 7.503 13.06 5.41 5.029-2.089 7.493-8.028 5.41-13.06-2.084-5.033-8.028-7.493-13.06-5.41-5.05 2.091-7.478 8.016-5.41 13.06z"/></g></g></svg>